<svg xmlns="http://www.w3.org/2000/svg" viewBox="0 0 1200 420"><defs><linearGradient id="sky" x1="0" y1="0" x2="0" y2="1"><stop stop-color="#e5f4ff"/><stop offset="1" stop-color="#bfdceb"/></linearGradient><linearGradient id="road" x1="0" x2="1"><stop stop-color="#758b9c"/><stop offset="1" stop-color="#29475f"/></linearGradient><linearGradient id="car" x1="0" x2="1"><stop stop-color="#e7eef2"/><stop offset=".5" stop-color="#8aa6b8"/><stop offset="1" stop-color="#25435a"/></linearGradient></defs><rect width="1200" height="420" fill="url(#sky)"/><circle cx="1000" cy="86" r="58" fill="#fff" opacity=".35"/><path d="M0 260L135 180l135 54 122-90 178 110 145-67 185 88v145H0z" fill="#abc8d8"/><path d="M0 306h1200v114H0z" fill="url(#road)"/><path d="M704 348c45-92 124-139 264-142 80-2 151 22 208 69l24 145H682z" fill="url(#car)"/><path d="M832 248c39-17 88-28 145-28 61 0 113 10 155 30l-62 25H842z" fill="#16364d" opacity=".82"/><path d="M770 302h306c44 0 78 20 95 57H742c6-20 15-39 28-57z" fill="#a9bdc9"/><ellipse cx="817" cy="368" rx="44" ry="44" fill="#173548"/><ellipse cx="1115" cy="368" rx="44" ry="44" fill="#173548"/></svg>